<svg xmlns="http://www.w3.org/2000/svg" xmlns:xlink="http://www.w3.org/1999/xlink" viewBox="0,0,256,256" width="50px" height="50px" fill-rule="nonzero"><g fill="#ffffff" fill-rule="nonzero" stroke="none" stroke-width="1" stroke-linecap="butt" stroke-linejoin="miter" stroke-miterlimit="10" stroke-dasharray="" stroke-dashoffset="0" font-family="none" font-weight="none" font-size="none" text-anchor="none" style="mix-blend-mode: normal"><g transform="scale(5.12,5.12)"><path d="M25,2c-2.15061,0 -4.23436,0.29352 -6.21484,0.85938l-0.83398,0.23633l0.11719,0.85938c0.46693,3.40856 3.40439,6.04492 6.93164,6.04492c3.52725,0 6.46472,-2.63636 6.93164,-6.04492l0.11719,-0.85937l-0.83398,-0.23633c-1.98049,-0.56585 -4.06423,-0.85937 -6.21484,-0.85937zM25,4c1.61093,0 3.13459,0.29215 4.63477,0.63867c-0.68674,1.93536 -2.45759,3.36133 -4.63477,3.36133c-2.17717,0 -3.94802,-1.42597 -4.63477,-3.36133c1.50017,-0.34652 3.02384,-0.63867 4.63477,-0.63867zM14.48828,4.52148l-0.75976,0.42773c-3.66919,2.0698 -6.7095,5.11011 -8.7793,8.7793l-0.42773,0.75976l0.69336,0.52734c2.74231,2.08882 6.67925,1.87162 9.17969,-0.61719l0.00195,-0.00195l0.00195,-0.00195c2.4888,-2.50043 2.70601,-6.43738 0.61719,-9.17969zM35.51172,4.52148l-0.52734,0.69336c-2.08882,2.74231 -1.87162,6.67925 0.61719,9.17969l0.00195,0.00195l0.00195,0.00195c2.50043,2.4888 6.43738,2.70601 9.17969,0.61719l0.69336,-0.52734l-0.42773,-0.75976c-2.06989,-3.66928 -5.11011,-6.7095 -8.7793,-8.7793zM13.88086,7.32227c0.88727,1.85526 0.63941,4.11512 -0.90039,5.66211c-1.54693,1.53637 -3.80455,1.78299 -5.6582,0.89648c1.67617,-2.65309 3.9055,-4.88242 6.55859,-6.55859zM36.11914,7.32227c2.65309,1.67617 4.88242,3.9055 6.55859,6.55859c-1.85365,0.8865 -4.11127,0.63988 -5.6582,-0.89648l-0.00195,-0.00195l-0.00195,-0.00195c-1.53627,-1.54684 -1.78298,-3.80455 -0.89648,-5.6582zM25,12c-0.91667,0 -1.73144,0.37976 -2.24805,0.96094c-0.51661,0.58118 -0.75195,1.31684 -0.75195,2.03906c0,0.72222 0.23535,1.45788 0.75195,2.03906c0.51661,0.58118 1.33138,0.96094 2.24805,0.96094c0.91667,0 1.73144,-0.37976 2.24805,-0.96094c0.51661,-0.58118 0.75195,-1.31684 0.75195,-2.03906c0,-0.72222 -0.23535,-1.45788 -0.75195,-2.03906c-0.51661,-0.58118 -1.33138,-0.96094 -2.24805,-0.96094zM25,14c0.41667,0 0.60189,0.12024 0.75195,0.28906c0.15006,0.16882 0.24805,0.43316 0.24805,0.71094c0,0.27778 -0.09799,0.54212 -0.24805,0.71094c-0.15006,0.16882 -0.33529,0.28906 -0.75195,0.28906c-0.41667,0 -0.60189,-0.12024 -0.75195,-0.28906c-0.15006,-0.16882 -0.24805,-0.43316 -0.24805,-0.71094c0,-0.27778 0.09799,-0.54212 0.24805,-0.71094c0.15006,-0.16882 0.33529,-0.28906 0.75195,-0.28906zM17.92969,14.92969c-0.91667,0 -1.73144,0.3778 -2.24805,0.95898c-0.51661,0.58118 -0.75195,1.31879 -0.75195,2.04102c0,0.72222 0.23535,1.45788 0.75195,2.03906c0.51661,0.58118 1.33138,0.96094 2.24805,0.96094c0.91667,0 1.72949,-0.37976 2.24609,-0.96094c0.51661,-0.58118 0.75391,-1.31684 0.75391,-2.03906c0,-0.72222 -0.2373,-1.45983 -0.75391,-2.04102c-0.51661,-0.58118 -1.32943,-0.95898 -2.24609,-0.95898zM32.07031,14.92969c-0.91667,0 -1.72949,0.3778 -2.24609,0.95898c-0.51661,0.58118 -0.75391,1.31879 -0.75391,2.04102c0,0.72222 0.2373,1.45788 0.75391,2.03906c0.51661,0.58118 1.32943,0.96094 2.24609,0.96094c0.91667,0 1.73144,-0.37976 2.24805,-0.96094c0.51661,-0.58118 0.75195,-1.31684 0.75195,-2.03906c0,-0.72222 -0.23535,-1.45983 -0.75195,-2.04102c-0.51661,-0.58118 -1.33138,-0.95898 -2.24805,-0.95898zM17.92969,16.92969c0.41667,0 0.60189,0.12024 0.75195,0.28906c0.15006,0.16882 0.24805,0.43316 0.24805,0.71094c0,0.27778 -0.09799,0.54017 -0.24805,0.70898c-0.15006,0.16882 -0.33529,0.29102 -0.75195,0.29102c-0.41667,0 -0.60385,-0.1222 -0.75391,-0.29102c-0.15006,-0.16882 -0.2461,-0.43121 -0.24609,-0.70898c0,-0.27778 0.09603,-0.54212 0.24609,-0.71094c0.15006,-0.16882 0.33724,-0.28906 0.75391,-0.28906zM32.07031,16.92969c0.41667,0 0.60385,0.12024 0.75391,0.28906c0.15006,0.16882 0.24609,0.43316 0.24609,0.71094c0,0.27778 -0.09603,0.54017 -0.24609,0.70898c-0.15006,0.16882 -0.33724,0.29102 -0.75391,0.29102c-0.41667,0 -0.60189,-0.1222 -0.75195,-0.29102c-0.15006,-0.16882 -0.24805,-0.43121 -0.24805,-0.70898c0,-0.27778 0.09799,-0.54212 0.24805,-0.71094c0.15006,-0.16882 0.33529,-0.28906 0.75195,-0.28906zM3.0957,17.95117l-0.23633,0.83398c-0.56585,1.98049 -0.85937,4.06423 -0.85937,6.21484c0,2.15061 0.29352,4.23436 0.85938,6.21484l0.23633,0.83398l0.85938,-0.11719c3.40856,-0.46693 6.04492,-3.40439 6.04492,-6.93164c0,-3.52725 -2.63636,-6.46472 -6.04492,-6.93164zM46.9043,17.95117l-0.85937,0.11719c-3.40856,0.46693 -6.04492,3.40439 -6.04492,6.93164c0,3.52725 2.63636,6.46472 6.04492,6.93164l0.85938,0.11719l0.23633,-0.83398c0.56585,-1.98049 0.85938,-4.06423 0.85938,-6.21484c0,-2.15061 -0.29352,-4.23436 -0.85937,-6.21484zM4.63867,20.36523c1.93536,0.68674 3.36133,2.45759 3.36133,4.63477c0,2.17717 -1.42597,3.94802 -3.36133,4.63477c-0.34652,-1.50017 -0.63867,-3.02384 -0.63867,-4.63477c0,-1.61093 0.29215,-3.13459 0.63867,-4.63477zM45.36133,20.36523c0.34652,1.50017 0.63867,3.02384 0.63867,4.63477c0,1.61093 -0.29215,3.13459 -0.63867,4.63477c-1.93536,-0.68674 -3.36133,-2.45759 -3.36133,-4.63477c0,-2.17717 1.42596,-3.94802 3.36133,-4.63477zM15,22c-0.91667,0 -1.73144,0.37976 -2.24805,0.96094c-0.51661,0.58118 -0.75195,1.31684 -0.75195,2.03906c0,0.72222 0.23535,1.45788 0.75195,2.03906c0.51661,0.58118 1.33138,0.96094 2.24805,0.96094c0.91667,0 1.73144,-0.37976 2.24805,-0.96094c0.51661,-0.58118 0.75195,-1.31684 0.75195,-2.03906c0,-0.72222 -0.23535,-1.45788 -0.75195,-2.03906c-0.51661,-0.58118 -1.33138,-0.96094 -2.24805,-0.96094zM35,22c-0.91667,0 -1.73144,0.37976 -2.24805,0.96094c-0.51661,0.58118 -0.75195,1.31684 -0.75195,2.03906c0,0.72222 0.23535,1.45788 0.75195,2.03906c0.51661,0.58118 1.33138,0.96094 2.24805,0.96094c0.91667,0 1.73144,-0.37976 2.24805,-0.96094c0.51661,-0.58118 0.75195,-1.31684 0.75195,-2.03906c0,-0.72222 -0.23535,-1.45788 -0.75195,-2.03906c-0.51661,-0.58118 -1.33138,-0.96094 -2.24805,-0.96094zM15,24c0.41667,0 0.60189,0.12024 0.75195,0.28906c0.15006,0.16882 0.24805,0.43316 0.24805,0.71094c0,0.27778 -0.09799,0.54212 -0.24805,0.71094c-0.15006,0.16882 -0.33529,0.28906 -0.75195,0.28906c-0.41667,0 -0.60189,-0.12024 -0.75195,-0.28906c-0.15006,-0.16882 -0.24805,-0.43316 -0.24805,-0.71094c0,-0.27778 0.09799,-0.54212 0.24805,-0.71094c0.15006,-0.16882 0.33529,-0.28906 0.75195,-0.28906zM35,24c0.41667,0 0.60189,0.12024 0.75195,0.28906c0.15006,0.16882 0.24805,0.43316 0.24805,0.71094c0,0.27778 -0.09799,0.54212 -0.24805,0.71094c-0.15006,0.16882 -0.33529,0.28906 -0.75195,0.28906c-0.41667,0 -0.60189,-0.12024 -0.75195,-0.28906c-0.15006,-0.16882 -0.24805,-0.43316 -0.24805,-0.71094c0,-0.27778 0.09799,-0.54212 0.24805,-0.71094c0.15006,-0.16882 0.33529,-0.28906 0.75195,-0.28906zM17.92969,29.07031c-0.91667,0 -1.73144,0.37976 -2.24805,0.96094c-0.51661,0.58118 -0.75195,1.31684 -0.75195,2.03906c0,0.72222 0.23535,1.45983 0.75195,2.04102c0.51661,0.58118 1.33138,0.95898 2.24805,0.95898c0.91667,0 1.72949,-0.3778 2.24609,-0.95898c0.51661,-0.58118 0.75391,-1.31879 0.75391,-2.04102c0,-0.72222 -0.2373,-1.45788 -0.75391,-2.03906c-0.51661,-0.58118 -1.32943,-0.96094 -2.24609,-0.96094zM32.07031,29.07031c-0.91667,0 -1.72949,0.37976 -2.24609,0.96094c-0.51661,0.58118 -0.75391,1.31684 -0.75391,2.03906c0,0.72222 0.2373,1.45983 0.75391,2.04102c0.51661,0.58118 1.32943,0.95898 2.24609,0.95898c0.91667,0 1.73144,-0.3778 2.24805,-0.95898c0.51661,-0.58118 0.75195,-1.31879 0.75195,-2.04102c0,-0.72222 -0.23535,-1.45788 -0.75195,-2.03906c-0.51661,-0.58118 -1.33138,-0.96094 -2.24805,-0.96094zM17.92969,31.07031c0.41667,0 0.60189,0.1222 0.75195,0.29102c0.15006,0.16882 0.24805,0.43121 0.24805,0.70898c0,0.27778 -0.09799,0.54212 -0.24805,0.71094c-0.15006,0.16882 -0.33529,0.28906 -0.75195,0.28906c-0.41667,0 -0.60385,-0.12024 -0.75391,-0.28906c-0.15006,-0.16882 -0.2461,-0.43316 -0.24609,-0.71094c0,-0.27778 0.09603,-0.54017 0.24609,-0.70898c0.15006,-0.16882 0.33724,-0.29102 0.75391,-0.29102zM32.07031,31.07031c0.41667,0 0.60385,0.1222 0.75391,0.29102c0.15006,0.16882 0.24609,0.43121 0.24609,0.70898c0,0.27778 -0.09603,0.54212 -0.24609,0.71094c-0.15006,0.16882 -0.33724,0.28906 -0.75391,0.28906c-0.41667,0 -0.60189,-0.12024 -0.75195,-0.28906c-0.15006,-0.16882 -0.24805,-0.43316 -0.24805,-0.71094c0,-0.27778 0.09799,-0.54017 0.24805,-0.70898c0.15006,-0.16882 0.33529,-0.29102 0.75195,-0.29102zM25,32c-0.91667,0 -1.73144,0.37976 -2.24805,0.96094c-0.51661,0.58118 -0.75195,1.31684 -0.75195,2.03906c0,0.72222 0.23535,1.45788 0.75195,2.03906c0.51661,0.58118 1.33138,0.96094 2.24805,0.96094c0.91667,0 1.73144,-0.37976 2.24805,-0.96094c0.51661,-0.58118 0.75195,-1.31684 0.75195,-2.03906c0,-0.72222 -0.23535,-1.45788 -0.75195,-2.03906c-0.51661,-0.58118 -1.33138,-0.96094 -2.24805,-0.96094zM9.2793,33.56445c-1.43679,0.03405 -2.86469,0.50606 -4.06445,1.41992l-0.69336,0.52734l0.42773,0.75977c2.0698,3.66918 5.11011,6.7095 8.7793,8.7793l0.75976,0.42773l0.52734,-0.69336c2.08882,-2.74231 1.87162,-6.67925 -0.61719,-9.17969l-0.00195,-0.00195l-0.00195,-0.00195c-1.25012,-1.24431 -2.85999,-1.9212 -4.5,-2.02539c-0.205,-0.01302 -0.40998,-0.01658 -0.61523,-0.01172zM40.7207,33.56445c-0.20526,-0.00487 -0.41023,-0.00131 -0.61523,0.01172c-1.64001,0.10419 -3.24978,0.78099 -4.5,2.02539l-0.00195,0.00195l-0.00195,0.00195c-2.4888,2.50043 -2.70601,6.43738 -0.61719,9.17969l0.52734,0.69336l0.75977,-0.42773c3.66918,-2.0698 6.7095,-5.11011 8.7793,-8.7793l0.42773,-0.75977l-0.69336,-0.52734c-1.19976,-0.91386 -2.62766,-1.38587 -4.06445,-1.41992zM25,34c0.41667,0 0.60189,0.12024 0.75195,0.28906c0.15006,0.16882 0.24805,0.43316 0.24805,0.71094c0,0.27778 -0.09799,0.54212 -0.24805,0.71094c-0.15006,0.16882 -0.33529,0.28906 -0.75195,0.28906c-0.41667,0 -0.60189,-0.12024 -0.75195,-0.28906c-0.15006,-0.16882 -0.24805,-0.43316 -0.24805,-0.71094c0,-0.27778 0.09799,-0.54212 0.24805,-0.71094c0.15006,-0.16882 0.33529,-0.28906 0.75195,-0.28906zM9.76367,35.56641c1.16999,0.07331 2.32092,0.55753 3.2207,1.45313c1.53637,1.54693 1.78299,3.80455 0.89648,5.6582c-2.65309,-1.67617 -4.88242,-3.9055 -6.55859,-6.55859c0.77618,-0.3712 1.59983,-0.60547 2.44141,-0.55273zM40.23633,35.56641c0.84157,-0.05273 1.66523,0.18153 2.44141,0.55273c-1.67617,2.65309 -3.9055,4.88242 -6.55859,6.55859c-0.8865,-1.85365 -0.63988,-4.11127 0.89648,-5.6582l0.00195,-0.00195l0.00195,-0.00195c0.89919,-0.89305 2.04854,-1.37602 3.2168,-1.44922zM25,40c-3.52725,0 -6.46472,2.63636 -6.93164,6.04492l-0.11719,0.85938l0.83398,0.23633c1.98049,0.56585 4.06423,0.85938 6.21484,0.85938c2.15061,0 4.23436,-0.29352 6.21484,-0.85937l0.83398,-0.23633l-0.11719,-0.85937c-0.46693,-3.40856 -3.40439,-6.04492 -6.93164,-6.04492zM25,42c2.17717,0 3.94802,1.42596 4.63477,3.36133c-1.50017,0.34652 -3.02384,0.63867 -4.63477,0.63867c-1.61093,0 -3.13459,-0.29215 -4.63477,-0.63867c0.68674,-1.93536 2.45759,-3.36133 4.63477,-3.36133z"></path></g></g></svg>